<svg width="370" height="176" viewBox="0 0 370 176" fill="none" xmlns="http://www.w3.org/2000/svg">
<path d="M312.615 53.5872C303.227 54.5123 292.057 57.9386 281.539 63.2151C277.838 65.0996 270.677 69.2797 270.677 69.5538C270.677 69.6566 177.102 85.5767 232.495 76.041C241.404 85.5319 193.986 63.8308 196.487 75.6858C182.098 50.0164 159.764 53.2203 158.771 56.1669C158.428 57.1606 124.612 39.2251 160.88 77.2585C159.372 77.3955 181.854 58.0794 179.626 54.3105C176.097 48.383 201.197 54.7829 192.423 74.103C188.919 49.3062 243.748 75.6212 213.185 77.814C203.009 78.5335 200.286 77.6757 190.384 80.1083C180.037 82.678 173.711 90.0601 153.085 87.5589C146.575 86.7708 136.813 91.0844 131.126 89.1999C124.684 87.0756 124.08 91.6049 118.221 87.6647C115.72 85.9858 107.449 90.5912 107.174 90.5912C106.9 90.5912 104.228 89.9745 101.213 89.255C90.694 86.651 78.0853 82.1625 67.3267 77.1601C64.5171 75.8582 61.9817 74.6932 61.7076 74.5904C61.2964 74.4191 61.2621 74.7617 61.4335 76.5777C61.9131 81.1689 65.5108 86.788 72.6717 94.1203C74.8988 96.4159 76.749 98.3004 76.749 98.3004H69.4853C61.7076 98.3346 59.3434 98.643 52.3195 100.699C41.2183 103.92 27.6502 111.355 16.2064 120.469C10.6558 124.923 6.4757 128.726 3.83745 131.707C1.67888 134.174 0 136.641 0 137.326C0 137.429 0.822311 137.189 1.81594 136.778C13.9108 131.878 33.8518 127.561 50.7092 126.225C57.1163 125.676 72.192 125.676 78.1195 126.19C94.6 127.629 109.881 132.769 151.442 150.894C183.512 164.873 192.661 168.368 203.042 170.561C205.304 171.041 209.929 172.034 213.321 172.788C225.484 175.495 231.412 175.803 240.012 174.227C256.013 171.28 266.36 165.559 279.586 152.299C288.631 143.219 293.085 137.155 301.171 122.833C311.45 104.536 315.87 98.8486 326.389 90.3856C333.858 84.3554 337.319 83.0534 346.912 82.8135C350.784 82.6765 353.628 82.8135 356.677 83.1904C360.892 83.7386 368.669 85.2119 369.869 85.6574C371.068 86.137 363.735 76.2693 361.2 74.008C360.789 73.6311 360.446 73.1514 360.446 72.8773C360.446 72.6374 360.275 72.4319 360.069 72.4319C359.898 72.4319 358.459 71.3012 356.917 69.9307C351.264 64.9283 346.775 61.9131 340.402 58.8637C331.254 54.4781 321.935 52.6964 312.615 53.5872Z" fill="#266896"/>
<path d="M131.536 0.171883C129.242 0.787758 130.646 15.2952 133.83 23.7464C134.31 25.0466 135.268 27.0653 135.919 28.2629C136.569 29.4604 136.98 30.35 136.809 30.2474C136.638 30.1447 134.001 29.7683 130.886 29.3578C99.5243 25.3545 82.5425 21.1118 74.5652 15.2609C72.374 13.6186 70.6963 13.1054 68.8133 13.4817C67.7861 13.6528 67.6149 13.8239 67.4095 14.953C66.7932 18.5456 69.4638 24.9782 74.0858 31.137C80.6937 39.9304 89.7666 47.1156 99.4901 51.3242C103.153 52.8981 109.933 54.9168 112.637 55.2247C113.664 55.3616 114.486 55.5669 114.486 55.7038C114.486 56.1486 111.439 57.1066 108.46 57.5856C103.222 58.441 96.3402 57.1066 84.2201 52.8296C80.0432 51.3584 79.735 51.2899 78.9476 51.8032C78.3998 52.1796 78.2286 52.5217 78.3998 52.8981C78.5025 53.206 79.0503 54.5746 79.5638 55.9433C80.8649 59.3648 83.2615 63.676 86.6168 68.7057C99.3874 87.8664 116.677 100.321 136.467 104.598C144.684 106.377 160.33 107.848 170.807 107.814C179.948 107.814 182.242 107.54 190.836 105.487C200.593 103.127 204.702 102.648 222.163 101.724C249.998 100.252 267.459 104.529 278.518 115.547C281.052 118.113 282.9 120.611 286.187 125.914C287.694 128.343 291.494 128.754 292.076 126.598C292.555 124.888 292.282 113.87 291.699 109.935C290.33 101.074 288.721 95.3596 286.016 89.6114C279.374 75.6857 267.733 63.7444 252.018 54.7115C245.034 50.6741 237.604 47.7657 226.648 44.7206C214.22 41.299 205.284 38.1854 195.8 34.0111C182.79 28.2971 171.149 20.5644 165.432 13.8581C164.302 12.4895 163.103 11.1551 162.761 10.8814C161.905 10.1628 160.193 7.28872 159.337 5.0647C158.926 4.03824 158.481 3.04599 158.31 2.90913C157.934 2.49854 156.701 2.94334 156.461 3.59344C155.879 5.03049 158.755 14.8504 161.083 19.5037C163.001 23.3358 165.705 27.3048 169.163 31.4449L172.074 34.9349L169.095 33.3268C157.557 27.2022 145.574 17.0744 138.726 7.63087C137.631 6.12539 136.535 4.65412 136.261 4.38039C135.987 4.10667 135.439 3.11442 135.029 2.22482C134.549 1.19835 133.933 0.445602 133.419 0.240311C132.564 -0.067627 132.495 -0.067627 131.536 0.171883Z" fill="#FBE882"/>
</svg>
